<?xml version="1.0" encoding="utf-8"?>
<!-- Generator: Adobe Illustrator 24.3.0, SVG Export Plug-In . SVG Version: 6.00 Build 0)  -->
<svg version="1.1" id="Layer_3" xmlns="http://www.w3.org/2000/svg" xmlns:xlink="http://www.w3.org/1999/xlink" x="0px" y="0px"
	 viewBox="0 0 272 274" style="enable-background:new 0 0 272 274;" xml:space="preserve">
<style type="text/css">
	.st0{fill:#686868;}
	.st1{fill:#F2B9A1;}
	.st2{fill:#976947;}
	.st3{fill:#C18E59;}
	.st4{fill:#FBE1CA;}
	.st5{fill:#FFD5B6;}
</style>
<path class="st0" d="M263,263.1l-4.4-6.5c-7.8-11.8-21.1-18.8-35.2-18.8h-21.3c-4.5,0-9-0.9-13.1-2.7l0,0
	c-14.2-6.1-23.3-20-23.3-35.4v-1l0,0c-8.7,6.2-19,9.5-29.6,9.5l0,0c-10.6,0-21-3.3-29.6-9.5l0,0v1c0,15.4-9.2,29.3-23.3,35.4l0,0
	c-4.1,1.8-8.6,2.7-13.1,2.7H48.8c-14.1,0-27.4,7.1-35.2,18.8l-4.4,6.5H263z"/>
<path class="st1" d="M178.9,228.7L178.9,228.7c-11.2,11.2-26.4,17.5-42.2,17.5h-1.3c-15.8,0-31-6.3-42.2-17.5l0,0
	c8.4-7.3,13.2-17.9,13.2-29.1v-1l0,0c8.7,6.2,19,9.5,29.6,9.5l0,0c10.6,0,21-3.3,29.6-9.5l0,0v1
	C165.6,210.8,170.5,221.4,178.9,228.7z"/>
<path class="st2" d="M199.5,127.2v26.3c0,7.9-3.1,15.4-8.7,20.9l-18.7,18.7c-9.6,9.6-22.6,15-36.1,15l0,0c-13.5,0-26.5-5.4-36.1-15
	l-18.7-18.7c-5.6-5.6-8.7-13.1-8.7-20.9v-26.3l0,0c1.4,0.4,2.8,0.5,4.2,0.5h8.5V139c0,7.8,6.3,14.1,14.1,14.1l0,0l0,0
	c4.4,0,8.6-2.1,11.3-5.6l0,0c5.3-7.1,13.7-11.3,22.6-11.3h5.6c8.9,0,17.2,4.2,22.6,11.3l0,0c2.7,3.6,6.8,5.6,11.3,5.6l0,0
	c7.8,0,14.1-6.3,14.1-14.1l0,0v-11.3h8.5C196.7,127.7,198.1,127.5,199.5,127.2z"/>
<path class="st3" d="M199.3,94.3l5.5-16.4c2.1-6.3,3.1-12.8,3.1-19.4l0,0c0-12.8-4-25.3-11.4-35.7l-9.7-13.6l-12.7,12.7L161.4,9.2
	l-12.7,12.7L136,9.2l-12.7,12.7L110.6,9.2L97.9,21.9L85.2,9.2l-9.7,13.6c-7.4,10.4-11.4,22.9-11.4,35.7l0,0c0,6.6,1.1,13.1,3.1,19.4
	l5.4,16.4l0,0c1.3-0.3,2.7-0.5,4.1-0.5h8.5v-7.3c0-6.4,1.1-12.7,3.4-18.7l0,0C94.2,52.9,108.5,43,124.4,43l0,0
	c10.1,0,19.9,4,27,11.2l5.2,5.2c5.7,5.7,13.5,9,21.7,9l0,0c4.7,0,8.5,3.8,8.5,8.5v16.9h8.5C196.6,93.8,198,94,199.3,94.3z"/>
<path class="st4" d="M161.4,147.4L161.4,147.4c2.7,3.6,6.8,5.6,11.3,5.6l0,0c7.8,0,14.1-6.3,14.1-14.1l0,0V76.8
	c0-4.7-3.8-8.5-8.5-8.5l0,0c-8.1,0-15.9-3.2-21.7-9l-5.2-5.2c-7.2-7.2-16.9-11.2-27-11.2l0,0c-15.9,0-30.2,9.9-35.8,24.8l0,0
	c-2.2,6-3.4,12.3-3.4,18.7V139c0,7.8,6.3,14.1,14.1,14.1l0,0l0,0c4.4,0,8.6-2.1,11.3-5.6l0,0c5.3-7.1,13.7-11.3,22.6-11.3h5.6
	C147.7,136.2,156.1,140.3,161.4,147.4z"/>
<path class="st1" d="M85.2,93.8h-8.5c-9.3,0-16.9,7.6-16.9,16.9l0,0c0,9.3,7.6,16.9,16.9,16.9h8.5"/>
<path class="st1" d="M186.8,93.8h8.5c9.3,0,16.9,7.6,16.9,16.9l0,0c0,9.3-7.6,16.9-16.9,16.9h-8.5"/>
<path class="st5" d="M136.7,170h-1.5c-8.8,0-17.2-3.5-23.4-9.7l6-6c4.6,4.6,10.9,7.2,17.4,7.2h1.5c6.5,0,12.8-2.6,17.4-7.2l6,6
	C154,166.5,145.5,170,136.7,170z"/>
<path d="M136.7,170c8.8,0,17.2-3.5,23.4-9.7l-6-6c-4.6,4.6-10.9,7.2-17.4,7.2h-1.5c-6.5,0-12.8-2.6-17.4-7.2l-6,6
	c6.2,6.2,14.6,9.7,23.4,9.7H136.7z"/>
<path d="M262.1,254.2c-8.6-13-23.2-20.8-38.7-20.7h-21.3c-3.9,0-7.8-0.8-11.5-2.4c-12.3-5.3-20.3-17.2-20.7-30.5
	c1.8-1.4,3.5-2.9,5.2-4.5l18.7-18.7c6.4-6.3,9.9-15,9.9-23.9v-23.4c10.7-4.6,15.6-17,11-27.7c-2-4.6-5.6-8.4-10.1-10.6l4.2-12.6
	c6.6-19.9,3.3-41.8-8.9-58.9l-9.7-13.6c-1.4-1.9-4-2.3-5.9-1c-0.2,0.1-0.4,0.3-0.5,0.4l-9.7,9.7l-9.7-9.7c-1.7-1.7-4.3-1.7-6,0
	l-9.7,9.7L139,6.1c-1.7-1.7-4.3-1.7-6,0l-9.7,9.7l-9.7-9.7c-1.7-1.7-4.3-1.7-6,0l-9.7,9.7l-9.7-9.7c-1.7-1.7-4.3-1.6-6,0
	c-0.2,0.2-0.3,0.3-0.4,0.5l-9.7,13.6c-12.2,17.1-15.5,39-8.8,58.9l4.2,12.6c-10.5,5.1-14.8,17.7-9.7,28.2c2.2,4.5,5.9,8.1,10.5,10.1
	v23.4c0,9,3.5,17.6,9.9,23.9L96.9,196c1.6,1.6,3.4,3.1,5.2,4.5c-0.4,13.3-8.4,25.2-20.7,30.5c-3.6,1.6-7.5,2.4-11.5,2.4H48.6
	c-15.6,0-30.1,7.8-38.7,20.7l-4.4,6.5l7,4.7l4.4-6.5c7.1-10.6,19-17,31.7-17h21.3c5.1,0,10.1-1,14.8-3c2.9-1.3,5.6-2.9,8.1-4.7
	c11.4,10.4,26.3,16.2,41.7,16.2h2.9c15.4,0,30.3-5.8,41.7-16.2c2.5,1.9,5.2,3.5,8.1,4.7c4.7,2,9.7,3,14.8,3h21.3
	c12.7,0,24.6,6.4,31.7,17l4.4,6.5l7-4.7L262.1,254.2z M195.3,123.5H191V98.1h4.2c7,0,12.7,5.7,12.7,12.7S202.3,123.5,195.3,123.5z
	 M71.2,76.6c-5.8-17.3-2.9-36.4,7.7-51.3l6.8-9.6l9.2,9.2c1.7,1.7,4.3,1.7,6,0l9.7-9.7l9.7,9.7c1.7,1.7,4.3,1.7,6,0l9.7-9.7l9.7,9.7
	c1.7,1.7,4.3,1.7,6,0l9.7-9.7l9.7,9.7c1.7,1.7,4.3,1.7,6,0l9.2-9.2l6.8,9.6c10.6,14.9,13.5,33.9,7.7,51.3l-4.4,13.2
	c-0.4,0-0.8-0.1-1.1-0.1H191V77c0-7-5.7-12.7-12.7-12.7s-13.7-2.8-18.7-7.7l-5.2-5.2c-7.9-8-18.8-12.5-30-12.4
	c-17.7,0.1-33.5,11-39.7,27.5C82.3,73,81,79.8,81,86.7v3h-4.2c-0.4,0-0.8,0.1-1.1,0.1L71.2,76.6z M182.6,76.9V139
	c0,5.5-4.4,9.9-9.9,9.9c-3.1,0-6-1.5-7.9-4c-6.1-8.2-15.7-13-26-13h-5.6c-10.2,0-19.8,4.8-26,13c-3.3,4.4-9.5,5.3-13.8,2
	c-2.5-1.9-4-4.8-4-7.9V86.6c0-5.9,1.1-11.7,3.1-17.2c5-13.2,17.7-22,31.8-22.1c9,0,17.7,3.6,24,10l5.2,5.2
	c6.5,6.6,15.4,10.2,24.7,10.2C180.7,72.7,182.6,74.6,182.6,76.9z M64.1,110.8c0-7,5.7-12.7,12.7-12.7H81v25.4h-4.2
	C69.7,123.5,64.1,117.8,64.1,110.8z M84.2,171.5c-4.8-4.8-7.5-11.2-7.4-18v-21.6H81v7.1c0,10.1,8.2,18.3,18.3,18.3
	c5.8,0,11.2-2.7,14.7-7.3c4.5-6,11.6-9.6,19.2-9.6h5.6c7.5,0,14.6,3.6,19.2,9.6c6.1,8.1,17.6,9.7,25.7,3.7c4.6-3.5,7.3-8.9,7.3-14.7
	v-7.1h4.2v21.6c0,6.7-2.7,13.2-7.4,18l-18.7,18.7c-18.3,18.3-47.9,18.3-66.2,0l0,0L84.2,171.5z M137.5,242h-2.9
	c-13,0-25.6-4.7-35.3-13.4c5.8-6.3,9.6-14.2,10.9-22.7c16.2,8.5,35.5,8.5,51.7,0c1.3,8.5,5.1,16.4,10.9,22.7
	C163,237.2,150.5,242,137.5,242z"/>
</svg>
