<?xml version="1.0" encoding="utf-8"?>
<!-- Generator: Adobe Illustrator 24.3.0, SVG Export Plug-In . SVG Version: 6.00 Build 0)  -->
<svg version="1.1" id="Capa_1" xmlns="http://www.w3.org/2000/svg" xmlns:xlink="http://www.w3.org/1999/xlink" x="0px" y="0px"
	 viewBox="0 0 270 268" style="enable-background:new 0 0 270 268;" xml:space="preserve">
<style type="text/css">
	.st0{fill:#78D2FA;}
	.st1{fill:#A5DC69;}
</style>
<path class="st0" d="M197.7,242.6c-60,34.6-136.6,14.1-171.2-45.9S12.4,60.1,72.4,25.5S209,11.4,243.6,71.4S257.7,208,197.7,242.6z"
	/>
<g>
	<path class="st1" d="M143.9,96.5c-0.9,0.2-2.7,0.7-3.4,1.3c-0.9,0.8,0.5,1.7,0,2.2c-0.9,0.7-1.6,2.1-3.6,2
		c-4.2-0.3-10.6-5.6-14.4-7.7c6.1-6.3-3.6-7.3-7.3-6.9c-4.9,0.4-13.4,0-17.8,2.5c-3.1,1.7-7.2,8.9-9.7,11.7c-3.4,4-6.9,7.4-9.1,12.2
		c-8.2,17.4,4.4,37.4,24.3,35.1c5.5-0.6,11.3-4.1,16.2,0.5c3.6,3.4,1.7,6.6,2.7,10.5c0.8,3.4,4.6,5.5,5.9,8.6
		c2.5,6,0.9,9.8-0.9,15.3c-2.3,7.3,3.7,15.9,6.1,22.9c1.2,3.5,4.7,13.4,8.1,15c5.3,2.4,13.7-4.9,16.9-8.8c2.5-3.1,1.7-6.2,3.4-9.1
		c1.8-3.1,4.1-4,5.4-8c1.4-4.3,2.8-5.4,5.7-8.5c4.7-5.1,3.9-8,2.1-14c-3.9-12.5,10.2-18.3,16.5-27.5c6.6-9.6-6.2-6.4-11.2-9.7
		c-5.2-3.4-7.4-9.8-9.9-15.1s-4.5-13.3-8.6-17.6C158,99.7,148.4,98.2,143.9,96.5z"/>
	<path class="st1" d="M208.6,180.3c-2,6.7-4,13.5-6,20.2c-1.4,4.7-6.3,20.1-13.3,10.2c-2.6-3.7-0.5-8.7,1-12.1
		c1.9-4.4-0.7-6.5,0.6-10.7c1.5-4.7,7.6-4.9,10.5-8.2c2-2.3,3.3-6,4.7-8.7C206.9,174.1,207.8,177.2,208.6,180.3z"/>
	<path class="st1" d="M243.6,71.3C222,33.9,184,11.9,144,9l-16.4,20.6L92.5,41.9l-9.4,22.8l14.5,20.4l1.5-4.3c2.6-7.2,9.4-12,17-12
		h24l27.5,9.7l9.5,9.1v5.8l13.2,25.3l3.8-1.4c8.3-3.1,15.8-7.9,22.1-14.1l-3.2-4.8c-1-1.5,0.1-3.6,1.9-3.6h7.7c2.3,0,4.4,1,5.9,2.7
		l6.3,7.4c0.6,0.7,1.1,1.5,1.4,2.4l6.9,19.1l3.3-3.3c2.1-2.1,3.1-4.9,3.2-7.9c0-2.4,1.1-4.6,2.8-6.2l2.5-2.3c0.6-0.6,1.3-1,2.1-1.4
		C254.3,93.6,249.8,82.2,243.6,71.3z"/>
	<path class="st1" d="M56,76.2l6-6.4c4.4-4.7,5.6-11.5,3.2-17.4l0,0c-2.6-6.3-8.2-10.3-14.5-11.2c-22.1,20.1-35.9,47.1-39.9,75.7
		c4.7,4.1,9.6,8.5,9.6,8.9c-0.1,0.7,17.5-2.2,17.5-2.2l-9.1-13.3l13-9.3L56,76.2z"/>
	<path class="st1" d="M68.2,201.1c5.7-1.8,8.7-7.9,6.9-13.6l-1.6-5c-0.7-2.2-0.7-4.5,0-6.7l0,0c2-6.1-1.8-12.7-8.2-13.9l-12.7-2.5
		l-23-17.4l-19.1,6.2c1.9,16.6,7.1,33.1,16,48.5c8.2,14.2,18.8,26.3,31,35.8l5.7-29.8L68.2,201.1z"/>
</g>
<path d="M195.1,238.2l-0.2,0.1c-2.4,1.4-3.3,4.5-1.9,7c0.9,1.6,2.7,2.5,4.4,2.5c0.9,0,1.7-0.2,2.6-0.7l0.2-0.1
	c2.4-1.4,3.3-4.5,1.9-7C200.7,237.6,197.6,236.8,195.1,238.2z"/>
<path d="M248,68.8C230.6,38.6,202.4,17,168.8,8c-33.7-9-68.8-4.4-99,13S18,66.6,9,100.3s-4.4,68.8,13,99
	c15.6,27.1,40.5,47.6,69.9,57.9c14,4.9,28.6,7.3,43.1,7.3c15.8,0,31.6-2.9,46.6-8.6c2.6-1,3.9-4,2.9-6.6s-4-3.9-6.6-2.9
	c-39.8,15.3-82.8,8.3-115-15.8l4.6-23.8l2.2-0.7c8.3-2.7,12.9-11.7,10.2-20l-1.6-5c-0.4-1.1-0.4-2.4,0-3.5c1.4-4.3,0.9-9-1.4-13
	s-6.2-6.7-10.6-7.5l-11.5-2.2L32.6,138c-1.3-1-3.1-1.3-4.7-0.8l-13,4.2c-0.3-4.6-0.3-9.3,0-13.9c0.5,0.5,0.8,0.8,1.1,1
	c0.3,0.4,0.6,0.8,0.9,1.1c1.1,1,2,1.4,4,1.4c1.9,0,4.6-0.4,9.1-1c4.3-0.6,8.6-1.4,8.6-1.4c1.7-0.3,3.2-1.4,3.8-3
	c0.7-1.6,0.5-3.4-0.5-4.9l-6.2-9.2l9-6.4c0.6-0.4,1.1-1,1.5-1.6l13.9-24.2l5.6-6c5.7-6.1,7.3-15.1,4.2-22.8
	c-1.9-4.6-5.2-8.4-9.3-10.9c4.5-3.5,9.2-6.7,14.3-9.6c18.5-10.7,38.7-15.9,58.7-16.1l-9.1,11.4L90.7,37.1c-1.4,0.5-2.5,1.5-3,2.9
	l-9.4,22.8c-0.7,1.6-0.5,3.5,0.6,4.9L92.7,87c-2,1.8-3.9,4.4-6.2,7.7c-1,1.4-2,2.8-2.6,3.5s-1.1,1.3-1.7,1.9c-3,3.3-6,6.8-8.2,11.4
	c-4.8,10.1-3.8,21.9,2.5,30.7c6.1,8.5,16.2,12.9,27,11.6c1.8-0.2,3.4-0.6,5-1c4.4-1.1,5.8-1.2,7.2,0.1c0.7,0.6,0.7,0.8,0.7,2.9
	c0,1.4,0,3.1,0.5,5.1c0.8,3.1,2.7,5.3,4.3,7c0.8,0.9,1.6,1.8,1.8,2.4c1.6,3.8,0.9,5.9-0.6,10.5c-0.1,0.4-0.3,0.8-0.4,1.2
	c-2.3,7.1,0.9,14.2,3.7,20.5c0.9,2,1.8,3.9,2.4,5.6c4.6,13.6,8,16.7,10.8,18c1.4,0.7,2.9,0.9,4.4,0.9c7.3,0,15-6.8,18.5-11.1
	c2.2-2.7,2.8-5.4,3.2-7.4c0.2-1,0.4-1.8,0.7-2.3c0.5-0.8,1-1.4,1.7-2.1c1.4-1.5,3.1-3.5,4.2-6.9c0.8-2.6,1.4-3.3,3.5-5.4
	c0.4-0.4,0.7-0.8,1.1-1.2c6.8-7.4,5-13,3.2-19c-1.6-5,1.2-8.2,7.8-14.4c2.9-2.7,5.8-5.4,8.1-8.7c1-1.4,4-5.8,2.2-10.2
	c-1.8-4.3-6.5-5-10.3-5.6c-1.5-0.2-3.7-0.6-4.4-1c-3.2-2.1-5.1-6.4-6.9-10.5c-0.4-0.8-0.7-1.6-1.1-2.4c-0.7-1.4-1.3-3.1-2-4.9
	c-1.9-4.8-4-10.2-7.5-14c-3.2-3.4-9.3-5-14.6-6.5c-1.8-0.5-3.5-0.9-4.6-1.4c-0.9-0.3-2-0.4-2.9-0.2c-2.6,0.6-4.2,1.3-5.4,2.2
	c-0.3,0.3-1.3,1.1-1.8,2.4c-1.9-0.9-4.4-2.6-6-3.7c0,0-0.1,0-0.1-0.1c0.5-2.1,0.1-3.8-0.5-4.9c-2.8-6-12.3-5.6-14.2-5.4
	c-1.1,0.1-2.4,0.1-3.8,0.2c-2.2,0.1-4.7,0.2-7.1,0.4l0.1-0.3c1.8-5.1,6.8-8.6,12.2-8.6h2.9c2.8,0,5.1-2.3,5.1-5.1s-2.3-5.1-5.1-5.1
	h-2.9c-8.1,0-15.6,4.3-19.7,11l-7.6-10.6l7.5-18.1l33-11.6c0.9-0.3,1.7-0.9,2.3-1.6l14.7-18.4c37.5,3.6,72.7,24.6,92.9,59.6
	c5.4,9.3,9.4,19.1,12,29.2L249,105c-2.8,2.5-4.5,6.1-4.5,9.9v0.1l-3.5-9.7c-0.5-1.4-1.3-2.8-2.3-3.9l-6.3-7.4
	c-2.4-2.8-6-4.5-9.7-4.5H215c-2.7,0-5.2,1.5-6.5,3.9s-1.1,5.3,0.4,7.6l0.8,1.2c-5,4.3-10.7,7.7-16.8,10L182.3,92v-4.5
	c0-1.4-0.6-2.7-1.6-3.7l-9.5-9.1c-0.5-0.5-1.1-0.9-1.8-1.1l-8.5-3c-2.7-0.9-5.6,0.5-6.5,3.1c-0.9,2.7,0.5,5.6,3.1,6.5l7.5,2.6
	l7.1,6.8v3.6c0,0.8,0.2,1.6,0.6,2.4l13.2,25.3c1.2,2.3,3.9,3.3,6.3,2.4l3.8-1.4c8.9-3.3,17.2-8.6,23.9-15.3c1.7-1.7,2-4.4,0.6-6.4
	l-0.3-0.4h2.4c0.8,0,1.5,0.3,2,0.9l6.3,7.4c0.2,0.2,0.4,0.5,0.5,0.8l6.9,19.1c0.6,1.6,2,2.9,3.7,3.2c0.4,0.1,0.7,0.1,1.1,0.1
	c1.3,0,2.6-0.5,3.6-1.5l3.3-3.3c2.1-2.1,3.5-4.7,4.2-7.7c5.1,40.9-10.9,83.2-44.8,109.8c-2.2,1.7-2.6,4.9-0.9,7.2
	c1.7,2.2,4.9,2.6,7.2,0.9c24.5-19.2,41.3-46.7,47.3-77.3C269.1,128.3,263.8,96.2,248,68.8z M28.6,147.6l21,16
	c0.6,0.5,1.3,0.8,2.1,0.9l12.7,2.5c1.6,0.3,3,1.3,3.8,2.7c0.8,1.4,1,3.1,0.5,4.6c-1.1,3.2-1.1,6.6,0,9.8l1.6,5c1,3-0.7,6.2-3.6,7.1
	l-5.1,1.6c-1.8,0.6-3.1,2.1-3.4,3.9L54.1,223c-9-8.2-16.8-17.9-23.2-29c-7.8-13.5-12.7-27.9-14.8-42.4L28.6,147.6z M15.3,126.1
	c0,0.2,0,0.4,0.1,0.7C15.3,126.5,15.3,126.3,15.3,126.1z M60.5,54.3c1.7,4.1,0.8,8.8-2.2,12l-6,6.4c-0.3,0.3-0.5,0.6-0.7,0.9
	L38,97.5l-12.1,8.7c-2.3,1.6-2.8,4.7-1.2,7l4.5,6.6c-2.6,0.4-4.9,0.7-6.5,0.9c-0.3-0.3-0.6-0.6-0.9-0.9c-1.2-1.1-2.9-2.6-5.4-4.8
	c4.1-25.6,16.5-49.8,35.9-68.2C56,48,59,50.7,60.5,54.3z M111.3,92.6c1.5-0.1,3-0.1,4.3-0.2c0.7-0.1,1.5,0,2.2,0
	c-0.3,0.8-0.4,1.7-0.3,2.6c0.2,1.6,1.2,3,2.6,3.7c1,0.5,2.3,1.4,3.7,2.3c4,2.7,8.5,5.7,12.7,5.9c3.9,0.3,6-1.9,6.9-2.9
	c0.1-0.1,0.1-0.1,0.2-0.2c0.5-0.4,1-1,1.4-1.7c0.8,0.2,1.7,0.5,2.5,0.7c3,0.8,8.6,2.3,9.9,3.7c2.2,2.3,3.9,6.8,5.4,10.7
	c0.8,2,1.5,3.9,2.3,5.6c0.3,0.7,0.7,1.5,1,2.3c2.4,5.2,5,11.2,10.7,14.9c2.6,1.7,5.7,2.2,8.5,2.6c0.3,0.1,0.7,0.1,1.1,0.2
	c-1.6,2.3-4,4.5-6.5,6.8c-6.3,5.9-14.2,13.2-10.5,24.9c1.7,5.5,1.8,6.1-1,9.1c-0.4,0.4-0.7,0.8-1,1.1c-2.4,2.5-4.2,4.5-5.7,9.3
	c-0.4,1.4-1,2.1-2.1,3.2c-0.8,0.9-1.9,2.1-2.9,3.8c-1.2,2-1.5,3.9-1.8,5.4s-0.5,2.3-1.1,3c-1.3,1.7-3.9,4.1-6.4,5.7
	c-2.4,1.5-3.8,1.7-4.3,1.7c-0.5-0.6-2.5-3.1-5.5-12c-0.7-2.2-1.8-4.4-2.7-6.6c-2.2-4.8-4.4-9.7-3.3-13.1c0.1-0.4,0.3-0.8,0.4-1.2
	c1.7-5.3,3.4-10.3,0.3-17.6c-0.9-2.2-2.4-3.9-3.7-5.3c-0.8-0.9-1.8-2-1.9-2.6c-0.2-0.7-0.2-1.6-0.2-2.6c0-2.7,0-6.7-4-10.4
	c-5.6-5.3-12.2-3.7-16.6-2.6c-1.3,0.3-2.6,0.6-3.7,0.8c-7.2,0.8-13.6-1.9-17.5-7.4c-4.2-5.8-4.8-13.6-1.6-20.4
	c1.5-3.3,3.9-5.9,6.6-9c0.6-0.7,1.2-1.3,1.8-2c1-1.1,2.1-2.7,3.2-4.3c1.4-2,4-5.6,5.1-6.3C102.1,92.9,107.4,92.7,111.3,92.6z"/>
<path d="M195.2,219c5.2-0.8,9.1-6.3,12.3-17l6-20.2c0.3-0.9,0.3-1.9,0-2.8l-2.5-9.2c-0.5-2-2.2-3.5-4.3-3.8
	c-2.1-0.2-4.1,0.8-5.1,2.6c-0.6,1-1.1,2.1-1.5,3.2c-0.8,1.8-1.7,3.6-2.5,4.6c-0.5,0.6-1.8,1.2-3,1.8c-2.9,1.4-7,3.4-8.5,8.2
	c-1,3-0.6,5.4-0.3,7.2c0.2,1.5,0.3,2-0.1,3l-0.1,0.1c-1.6,3.8-4.6,10.9-0.4,16.9c3,4.3,6.2,5.4,8.7,5.4
	C194.3,219.1,194.7,219,195.2,219z M193.5,207.8c-1-1.4,0.5-4.8,1.4-7.1l0.1-0.1c1.6-3.6,1.1-6.4,0.8-8.5c-0.2-1.3-0.3-1.9,0-2.6
	c0.2-0.6,1.4-1.3,3.2-2.1c0.8-0.4,1.7-0.8,2.6-1.3l-3.9,13c-1.6,5.5-3.1,8-3.9,9.2C193.7,208.1,193.6,208,193.5,207.8z"/>
<path d="M141.8,64c-2.7-0.9-5.6,0.5-6.5,3.1c-0.9,2.7,0.5,5.6,3.1,6.5l0.3,0.1c0.6,0.2,1.1,0.3,1.7,0.3c2.1,0,4.1-1.3,4.8-3.4
	c0.9-2.7-0.5-5.6-3.1-6.5L141.8,64z"/>
</svg>
